<svg width="62" height="15" viewBox="0 0 62 15" fill="none" xmlns="http://www.w3.org/2000/svg">
<path d="M-0.000187457 12H3.10381V7.744H7.08781V12H10.1918V0.799999H7.08781V4.992H3.10381V0.799999H-0.000187457V12ZM14.4757 12.192C15.6117 12.192 16.4277 11.76 17.0197 11.104V12H20.0277V7.024C20.0277 5.808 19.7557 4.912 19.0997 4.272C18.4117 3.584 17.3557 3.216 15.8037 3.216C14.3157 3.216 13.2757 3.488 12.2997 3.888L12.9237 6.032C13.6917 5.728 14.3957 5.552 15.3077 5.552C16.4757 5.552 17.0357 6.064 17.0357 6.96V7.104C16.5397 6.928 15.7557 6.768 14.9557 6.768C12.9237 6.768 11.5637 7.696 11.5637 9.488V9.52C11.5637 11.248 12.8277 12.192 14.4757 12.192ZM15.5637 10.288C14.9397 10.288 14.4917 9.936 14.4917 9.344V9.312C14.4917 8.672 15.0037 8.24 15.8837 8.24C16.3317 8.24 16.7637 8.336 17.0677 8.464V8.864C17.0677 9.728 16.4437 10.288 15.5637 10.288ZM21.5738 14.56H24.6138V10.944C25.1738 11.6 25.9418 12.192 27.2538 12.192C29.3018 12.192 31.0778 10.48 31.0778 7.664V7.632C31.0778 4.864 29.3018 3.152 27.2378 3.152C25.9418 3.152 25.2058 3.776 24.6138 4.496V3.344H21.5738V14.56ZM26.3098 9.648C25.3338 9.648 24.5498 8.832 24.5498 7.68V7.648C24.5498 6.512 25.3338 5.696 26.3098 5.696C27.3018 5.696 28.0858 6.512 28.0858 7.648V7.68C28.0858 8.848 27.3018 9.648 26.3098 9.648ZM32.3863 14.56H35.4263V10.944C35.9863 11.6 36.7543 12.192 38.0663 12.192C40.1143 12.192 41.8903 10.48 41.8903 7.664V7.632C41.8903 4.864 40.1143 3.152 38.0503 3.152C36.7543 3.152 36.0183 3.776 35.4263 4.496V3.344H32.3863V14.56ZM37.1223 9.648C36.1463 9.648 35.3623 8.832 35.3623 7.68V7.648C35.3623 6.512 36.1463 5.696 37.1223 5.696C38.1143 5.696 38.8983 6.512 38.8983 7.648V7.68C38.8983 8.848 38.1143 9.648 37.1223 9.648ZM43.1988 2.56H46.3668V0.32H43.1988V2.56ZM43.2628 12H46.3028V3.344H43.2628V12ZM48.0597 12H51.0997V0.32H48.0597V12ZM55.3526 14.608C57.0806 14.608 57.8966 13.808 58.6486 11.792L61.8166 3.344H58.6966L57.0646 8.56L55.3366 3.344H52.1526L55.5446 11.84C55.3526 12.112 55.1446 12.192 54.8406 12.192C54.5046 12.192 53.9926 12.016 53.5126 11.728L52.5686 13.856C53.3686 14.304 54.2806 14.608 55.3526 14.608Z" fill="black"/>
</svg>
