<svg width="134" height="30" viewBox="0 0 134 30" fill="none" xmlns="http://www.w3.org/2000/svg">
<path d="M0.20275 24H6.41075V15.488H14.3787V24H20.5868V1.6H14.3787V9.984H6.41075V1.6H0.20275V24ZM29.1545 24.384C31.4265 24.384 33.0585 23.52 34.2425 22.208V24H40.2585V14.048C40.2585 11.616 39.7145 9.824 38.4025 8.544C37.0265 7.168 34.9145 6.432 31.8105 6.432C28.8345 6.432 26.7545 6.976 24.8025 7.776L26.0505 12.064C27.5865 11.456 28.9945 11.104 30.8185 11.104C33.1545 11.104 34.2745 12.128 34.2745 13.92V14.208C33.2825 13.856 31.7145 13.536 30.1145 13.536C26.0505 13.536 23.3305 15.392 23.3305 18.976V19.04C23.3305 22.496 25.8585 24.384 29.1545 24.384ZM31.3305 20.576C30.0825 20.576 29.1865 19.872 29.1865 18.688V18.624C29.1865 17.344 30.2105 16.48 31.9705 16.48C32.8665 16.48 33.7305 16.672 34.3385 16.928V17.728C34.3385 19.456 33.0905 20.576 31.3305 20.576ZM43.3508 29.12H49.4308V21.888C50.5508 23.2 52.0868 24.384 54.7108 24.384C58.8068 24.384 62.3588 20.96 62.3588 15.328V15.264C62.3588 9.728 58.8068 6.304 54.6788 6.304C52.0868 6.304 50.6148 7.552 49.4308 8.992V6.688H43.3508V29.12ZM52.8228 19.296C50.8708 19.296 49.3028 17.664 49.3028 15.36V15.296C49.3028 13.024 50.8708 11.392 52.8228 11.392C54.8068 11.392 56.3748 13.024 56.3748 15.296V15.36C56.3748 17.696 54.8068 19.296 52.8228 19.296ZM64.9758 29.12H71.0558V21.888C72.1758 23.2 73.7118 24.384 76.3358 24.384C80.4318 24.384 83.9838 20.96 83.9838 15.328V15.264C83.9838 9.728 80.4318 6.304 76.3038 6.304C73.7118 6.304 72.2398 7.552 71.0558 8.992V6.688H64.9758V29.12ZM74.4478 19.296C72.4958 19.296 70.9278 17.664 70.9278 15.36V15.296C70.9278 13.024 72.4958 11.392 74.4478 11.392C76.4318 11.392 77.9998 13.024 77.9998 15.296V15.36C77.9998 17.696 76.4318 19.296 74.4478 19.296ZM86.6008 5.12H92.9368V0.639999H86.6008V5.12ZM86.7288 24H92.8088V6.688H86.7288V24ZM96.3225 24H102.403V0.639999H96.3225V24ZM105.916 24H111.996V0.639999H105.916V24ZM120.502 29.216C123.958 29.216 125.59 27.616 127.094 23.584L133.43 6.688H127.19L123.926 17.12L120.47 6.688H114.102L120.886 23.68C120.502 24.224 120.086 24.384 119.478 24.384C118.806 24.384 117.782 24.032 116.822 23.456L114.934 27.712C116.534 28.608 118.358 29.216 120.502 29.216Z" fill="black"/>
</svg>
